<svg id="Layer_1" data-name="Layer 1" xmlns="http://www.w3.org/2000/svg" viewBox="0 0 523.43 183.75"><defs><style>.cls-1{fill:none;}.cls-2{fill:#ea7a57;}.cls-3{fill:#bf4031;}.cls-4{fill:#74a3ac;}.cls-5{fill:#3d6d6f;}.cls-6{fill:#393839;}</style></defs><path class="cls-1" d="M82.89,147.18c-28.88,0-52.38-25.5-52.38-56.84S54,33.51,82.89,33.51a48.84,48.84,0,0,1,6.32.43v-5a53.7,53.7,0,0,0-5.55-.3c-31.48,0-57.1,27-57.1,61.7s25.62,61.95,57.1,61.95a53.7,53.7,0,0,0,5.55-.3v-5.24A48.84,48.84,0,0,1,82.89,147.18Z"/><path class="cls-1" d="M83.28,73.14C74.83,73.14,68,80.86,68,90.34s6.87,17.21,15.32,17.21a13.74,13.74,0,0,0,5.93-1.35V74.48A13.88,13.88,0,0,0,83.28,73.14Z"/><path class="cls-1" d="M82.89,131.89c-21.42,0-38.84-18.83-38.84-42s17.42-42,38.84-42a35.71,35.71,0,0,1,6.32.57V43.62a38.78,38.78,0,0,0-6.32-.52c-23.59,0-42.78,21.2-42.78,47.24s19.19,47.24,42.78,47.24a39.92,39.92,0,0,0,6.32-.51v-5.74A36.68,36.68,0,0,1,82.89,131.89Z"/><path class="cls-1" d="M83.28,117.14c-13.74,0-24.92-12-24.92-26.8S69.54,63.55,83.28,63.55a23.29,23.29,0,0,1,5.93.77V59.18a25.4,25.4,0,0,0-6.32-.8c-15.64,0-28.37,14.14-28.37,31.52s12.73,31.53,28.37,31.53a25.4,25.4,0,0,0,6.32-.8v-4.26A23.29,23.29,0,0,1,83.28,117.14Z"/><path class="cls-2" d="M58.36,90.34c0,14.78,11.18,26.8,24.92,26.8a23.29,23.29,0,0,0,5.93-.77V106.2a13.74,13.74,0,0,1-5.93,1.35C74.83,107.55,68,99.83,68,90.34s6.87-17.2,15.32-17.2a13.88,13.88,0,0,1,5.93,1.34V64.32a23.29,23.29,0,0,0-5.93-.77C69.54,63.55,58.36,75.57,58.36,90.34Z"/><path class="cls-3" d="M82.89,121.43c-15.64,0-28.63-14.14-28.63-31.53s13-31.52,28.63-31.52a25.4,25.4,0,0,1,6.32.8V48.48a35.71,35.71,0,0,0-6.32-.57c-21.42,0-39.1,18.84-39.1,42s17.68,42,39.1,42a36.68,36.68,0,0,0,6.32-.56v-10.7A25.4,25.4,0,0,1,82.89,121.43Z"/><path class="cls-4" d="M30.18,90.34c0,31.34,23.83,56.84,52.71,56.84a48.84,48.84,0,0,0,6.32-.43v-9.68a39.92,39.92,0,0,1-6.32.51c-23.59,0-43.12-21.19-43.12-47.24S59.3,43.1,82.89,43.1a38.78,38.78,0,0,1,6.32.52V33.94a48.84,48.84,0,0,0-6.32-.43C54,33.51,30.18,59,30.18,90.34Z"/><path class="cls-5" d="M83.66,152.29c-31.48,0-57.61-27.15-57.61-61.83S52.18,28.64,83.66,28.64a53.7,53.7,0,0,1,5.55.3V19.3c-1.83-.16-3.68-.25-5.55-.25-36.77,0-67.21,31.45-67.21,71.41s30.44,71.42,67.21,71.42c1.87,0,3.72-.09,5.55-.25V152A53.7,53.7,0,0,1,83.66,152.29Z"/><path class="cls-6" d="M103.88,52.79a34.28,34.28,0,0,1,2.42-13.13,30.15,30.15,0,0,1,6.59-10.06,29,29,0,0,1,9.84-6.44,32.5,32.5,0,0,1,12.1-2.26,34.52,34.52,0,0,1,12.46,2.26,28.64,28.64,0,0,1,9.81,6.1l-11.74,15a10.46,10.46,0,0,0-4-3.37A12.27,12.27,0,0,0,136,39.75a11.4,11.4,0,0,0-4.5.89,10.61,10.61,0,0,0-3.66,2.6,12.16,12.16,0,0,0-2.45,4.14,15.7,15.7,0,0,0-.89,5.41,14.35,14.35,0,0,0,.93,5.33,12.55,12.55,0,0,0,2.49,4.05,10.35,10.35,0,0,0,3.66,2.6,11,11,0,0,0,4.42.9,10.61,10.61,0,0,0,5.66-1.45,12.27,12.27,0,0,0,3.74-3.41L157.1,75.73a28.2,28.2,0,0,1-9.49,6.52,33.9,33.9,0,0,1-24.88.13,29.08,29.08,0,0,1-9.84-6.52A30.77,30.77,0,0,1,106.3,65.8,33.77,33.77,0,0,1,103.88,52.79Z"/><path class="cls-6" d="M204.52,61c0,.74,0,1.49,0,2.26s-.06,1.41-.12,1.92H175.91a4,4,0,0,0,.76,2.13,7.05,7.05,0,0,0,1.69,1.62,7.43,7.43,0,0,0,2.25,1,9.41,9.41,0,0,0,2.53.34,8.43,8.43,0,0,0,6.92-3.15l13.18,7.07a19.87,19.87,0,0,1-8.16,7.68,28,28,0,0,1-21.34,1.28,22.57,22.57,0,0,1-7.68-4.56A22.19,22.19,0,0,1,160.72,71a25.6,25.6,0,0,1-2-10.49,26.11,26.11,0,0,1,1.84-10,22,22,0,0,1,12.5-12.4,24.72,24.72,0,0,1,9.21-1.71,21.86,21.86,0,0,1,9.08,1.84,20.62,20.62,0,0,1,7,5.11,23.52,23.52,0,0,1,4.54,7.8A29.17,29.17,0,0,1,204.52,61Zm-16-6.4a5.11,5.11,0,0,0-1.65-3.92,6.31,6.31,0,0,0-4.46-1.53,6.16,6.16,0,0,0-4.74,1.79,6.58,6.58,0,0,0-1.93,3.66Z"/><path class="cls-6" d="M211,18.52h19V83H211Z"/><path class="cls-6" d="M282.66,61c0,.74,0,1.49,0,2.26s-.07,1.41-.13,1.92H254a4,4,0,0,0,.76,2.13,7.05,7.05,0,0,0,1.69,1.62,7.43,7.43,0,0,0,2.25,1,9.46,9.46,0,0,0,2.53.34,8.52,8.52,0,0,0,4.3-1,8.22,8.22,0,0,0,2.62-2.17l13.18,7.07a19.87,19.87,0,0,1-8.16,7.68,26.33,26.33,0,0,1-12.42,2.81,26.64,26.64,0,0,1-8.92-1.53,22.76,22.76,0,0,1-7.68-4.56A22.32,22.32,0,0,1,238.85,71a25.6,25.6,0,0,1-2-10.49,25.93,25.93,0,0,1,1.85-10,21.91,21.91,0,0,1,12.5-12.4,24.63,24.63,0,0,1,9.2-1.71,21.86,21.86,0,0,1,9.08,1.84,20.52,20.52,0,0,1,7,5.11,23.35,23.35,0,0,1,4.54,7.8A29.17,29.17,0,0,1,282.66,61Zm-16-6.4A5.11,5.11,0,0,0,265,50.66a6.29,6.29,0,0,0-4.46-1.53,6.16,6.16,0,0,0-4.74,1.79,6.58,6.58,0,0,0-1.93,3.66Z"/><path class="cls-6" d="M338.12,60.38a31.22,31.22,0,0,1-1.24,8.7,25.18,25.18,0,0,1-3.65,7.63,18.47,18.47,0,0,1-6,5.41,16.55,16.55,0,0,1-8.34,2,18.13,18.13,0,0,1-7.46-1.58,12.35,12.35,0,0,1-5.37-4.3h-.16V83H289.17V18.52h18.56V41.71h.17a11.61,11.61,0,0,1,4.89-3.54,16.17,16.17,0,0,1,6.09-1.24,16.68,16.68,0,0,1,8.34,2,18.76,18.76,0,0,1,6,5.37,24.85,24.85,0,0,1,3.65,7.51A30,30,0,0,1,338.12,60.38Zm-17.2,0a8.09,8.09,0,0,0-1.77-5.2A6.19,6.19,0,0,0,314,53a6.68,6.68,0,0,0-5.26,2.22,7.6,7.6,0,0,0-2,5.2,7.79,7.79,0,0,0,2,5.37A6.68,6.68,0,0,0,314,68a6.24,6.24,0,0,0,5.15-2.17A8.31,8.31,0,0,0,320.92,60.38Z"/><path class="cls-6" d="M345,38.13H362.8v5.11H363A11.63,11.63,0,0,1,367,38.72a11.13,11.13,0,0,1,6.31-1.79,12.26,12.26,0,0,1,3.53.43l-1.44,16.71a11.88,11.88,0,0,0-2-.38,16.09,16.09,0,0,0-2-.13,7.74,7.74,0,0,0-5.79,2.22,7.47,7.47,0,0,0-2.17,5.45V83H345Z"/><path class="cls-6" d="M401.7,54.5a3.51,3.51,0,0,0-1.33-3,5.73,5.73,0,0,0-3.49-1A10.73,10.73,0,0,0,392,51.64,19.48,19.48,0,0,0,388,54.33l-9.25-9.72a26.7,26.7,0,0,1,9.16-6.06,29.14,29.14,0,0,1,10.94-2.13,24.23,24.23,0,0,1,10,1.79A15.41,15.41,0,0,1,415,43.16a19.5,19.5,0,0,1,3.22,7.33,41.4,41.4,0,0,1,.92,8.87V83h-16.8V79.4h-.16a8.94,8.94,0,0,1-4.58,3.66,16.48,16.48,0,0,1-5.79,1.11,17.74,17.74,0,0,1-5.1-.77A13.61,13.61,0,0,1,382,80.93a13.07,13.07,0,0,1-3.5-4.43,15,15,0,0,1-1.37-6.74,12.11,12.11,0,0,1,2.29-7.63,15.68,15.68,0,0,1,5.83-4.6,26.86,26.86,0,0,1,7.92-2.26,63,63,0,0,1,8.56-.6Zm.16,9.89a19,19,0,0,0-6.59.94,3.47,3.47,0,0,0-2.49,3.49,2.9,2.9,0,0,0,.4,1.58,3.57,3.57,0,0,0,1.05,1.07,5.1,5.1,0,0,0,1.4.64,5.36,5.36,0,0,0,1.41.21,5.45,5.45,0,0,0,4.26-1.79,6.66,6.66,0,0,0,1.61-4.61V64.39Z"/><path class="cls-6" d="M444.38,84.17q-8.52,0-12.62-3.88c-2.73-2.58-4.1-6.61-4.1-12.06v-16h-5.94V38.13h5.86V28.07h18V38.13h9.16V52.2h-9.16V64.13c0,2.16.44,3.63,1.33,4.4a5.41,5.41,0,0,0,3.65,1.15,11,11,0,0,0,1.85-.17,13.43,13.43,0,0,0,1.53-.35V82.64a16,16,0,0,1-4.06,1.1A33.54,33.54,0,0,1,444.38,84.17Z"/><path class="cls-6" d="M504,61c0,.74,0,1.49,0,2.26s-.07,1.41-.12,1.92H475.33a4,4,0,0,0,.76,2.13,7.05,7.05,0,0,0,1.69,1.62,7.43,7.43,0,0,0,2.25,1,9.48,9.48,0,0,0,2.54.34,8.57,8.57,0,0,0,4.3-1,8.29,8.29,0,0,0,2.61-2.17l13.18,7.07a19.75,19.75,0,0,1-8.16,7.68,26.33,26.33,0,0,1-12.42,2.81,26.64,26.64,0,0,1-8.92-1.53,22.76,22.76,0,0,1-7.68-4.56A22.32,22.32,0,0,1,460.14,71a25.6,25.6,0,0,1-2-10.49,25.93,25.93,0,0,1,1.85-10,21.91,21.91,0,0,1,12.5-12.4,24.63,24.63,0,0,1,9.2-1.71,21.86,21.86,0,0,1,9.08,1.84,20.52,20.52,0,0,1,7,5.11,23.35,23.35,0,0,1,4.54,7.8A29.17,29.17,0,0,1,504,61Zm-16-6.4a5.11,5.11,0,0,0-1.65-3.92,6.29,6.29,0,0,0-4.46-1.53,6.17,6.17,0,0,0-4.74,1.79,6.58,6.58,0,0,0-1.93,3.66Z"/><path class="cls-6" d="M103.88,128.11A34.28,34.28,0,0,1,106.3,115a30.15,30.15,0,0,1,6.59-10.06,28.88,28.88,0,0,1,9.84-6.44,32.5,32.5,0,0,1,12.1-2.26,34.52,34.52,0,0,1,12.46,2.26,28.64,28.64,0,0,1,9.81,6.1l-11.74,15a10.44,10.44,0,0,0-4-3.36,12.27,12.27,0,0,0-5.38-1.15,11.23,11.23,0,0,0-4.5.89,10.61,10.61,0,0,0-3.66,2.6,12.16,12.16,0,0,0-2.45,4.14,15.7,15.7,0,0,0-.89,5.41,14.35,14.35,0,0,0,.93,5.33,12.77,12.77,0,0,0,2.49,4.05,10.48,10.48,0,0,0,3.66,2.6,11,11,0,0,0,4.42.9,10.71,10.71,0,0,0,5.66-1.45,12.39,12.39,0,0,0,3.74-3.41l11.74,14.92a28.2,28.2,0,0,1-9.49,6.52,33.9,33.9,0,0,1-24.88.13,29.23,29.23,0,0,1-9.84-6.52,30.71,30.71,0,0,1-6.59-10.07A33.68,33.68,0,0,1,103.88,128.11Z"/><path class="cls-6" d="M182.34,129.82a3.5,3.5,0,0,0-1.33-3,5.75,5.75,0,0,0-3.49-1,10.67,10.67,0,0,0-4.87,1.15,19.61,19.61,0,0,0-4.06,2.69l-9.24-9.72a26.56,26.56,0,0,1,9.16-6.06,29.11,29.11,0,0,1,10.94-2.13,24.18,24.18,0,0,1,10,1.79,15.21,15.21,0,0,1,6.23,5,19.43,19.43,0,0,1,3.22,7.33,41.33,41.33,0,0,1,.92,8.87V158.3H183v-3.59h-.16a8.91,8.91,0,0,1-4.58,3.67,16.48,16.48,0,0,1-5.79,1.11,18.09,18.09,0,0,1-5.1-.77,13.52,13.52,0,0,1-4.74-2.47,13,13,0,0,1-3.5-4.43,15,15,0,0,1-1.37-6.74,12.09,12.09,0,0,1,2.29-7.63,15.8,15.8,0,0,1,5.83-4.61,27.48,27.48,0,0,1,7.92-2.26,64.62,64.62,0,0,1,8.56-.59Zm.16,9.89a19,19,0,0,0-6.59.94,3.47,3.47,0,0,0-2.49,3.49,2.9,2.9,0,0,0,.4,1.58,3.39,3.39,0,0,0,1,1.06,4.74,4.74,0,0,0,1.41.64,5,5,0,0,0,1.41.22,5.47,5.47,0,0,0,4.26-1.79,6.66,6.66,0,0,0,1.61-4.61v-1.53Z"/><path class="cls-6" d="M207.42,113.45h17.84v5.11h.16a11.71,11.71,0,0,1,4.06-4.52,11.17,11.17,0,0,1,6.31-1.79,11.94,11.94,0,0,1,3.54.43l-1.45,16.71a11.68,11.68,0,0,0-2-.38,16,16,0,0,0-2-.13,7.7,7.7,0,0,0-5.78,2.22,7.46,7.46,0,0,0-2.17,5.45V158.3H207.42Z"/><path class="cls-6" d="M285.87,136.3c0,.74,0,1.49,0,2.26s-.07,1.4-.12,1.91H257.25a4.05,4.05,0,0,0,.77,2.14,6.87,6.87,0,0,0,1.69,1.62,7.57,7.57,0,0,0,2.25,1,9.41,9.41,0,0,0,2.53.34,8.65,8.65,0,0,0,4.3-1,8.29,8.29,0,0,0,2.61-2.17l13.18,7.07a19.85,19.85,0,0,1-8.15,7.68A26.39,26.39,0,0,1,264,160a26.7,26.7,0,0,1-8.93-1.53,22.49,22.49,0,0,1-7.67-4.57,22.07,22.07,0,0,1-5.35-7.54,25.6,25.6,0,0,1-2-10.49,26.11,26.11,0,0,1,1.85-10,22.65,22.65,0,0,1,5-7.59,22.26,22.26,0,0,1,7.48-4.81,24.67,24.67,0,0,1,9.2-1.71,22.07,22.07,0,0,1,9.09,1.83,20.74,20.74,0,0,1,7,5.12,23.19,23.19,0,0,1,4.54,7.8A29.13,29.13,0,0,1,285.87,136.3Zm-16-6.4a5.14,5.14,0,0,0-1.64-3.92,6.31,6.31,0,0,0-4.46-1.53,6.2,6.2,0,0,0-4.75,1.79,6.64,6.64,0,0,0-1.93,3.66Z"/><path class="cls-6" d="M322.5,116a3.68,3.68,0,0,0-1.44-1.44,4.45,4.45,0,0,0-2.26-.58,6.15,6.15,0,0,0-2.68.58,6.67,6.67,0,0,0-2.11,1.6,7.39,7.39,0,0,0-1.39,2.35,8,8,0,0,0-.5,2.82,5.94,5.94,0,0,0,.31,1.92,4.36,4.36,0,0,0,.9,1.55,4.42,4.42,0,0,0,1.51,1,5.17,5.17,0,0,0,2.12.4,5.86,5.86,0,0,0,2.7-.57,7.08,7.08,0,0,0,1.92-1.46l2,1.85a11.17,11.17,0,0,1-3,2.15,8.69,8.69,0,0,1-3.82.8,9.48,9.48,0,0,1-3.28-.54A7.13,7.13,0,0,1,311,127a6.62,6.62,0,0,1-1.6-2.29,7.49,7.49,0,0,1-.56-3,11.15,11.15,0,0,1,.72-4,10.47,10.47,0,0,1,2.06-3.34,9.73,9.73,0,0,1,3.22-2.29,10,10,0,0,1,4.19-.86,9.31,9.31,0,0,1,1.83.18,8.5,8.5,0,0,1,1.71.52,5.76,5.76,0,0,1,1.45.87,4.5,4.5,0,0,1,1.09,1.28Z"/><path class="cls-6" d="M338.38,118c.05-.33.08-.59.11-.78a5.17,5.17,0,0,0,0-.54,2.48,2.48,0,0,0-.92-2.15,4.56,4.56,0,0,0-2.63-.65,7.41,7.41,0,0,0-2.7.53,9.32,9.32,0,0,0-2.35,1.32l-1.35-2.21a10.53,10.53,0,0,1,3.17-1.68,11.09,11.09,0,0,1,3.69-.63,10,10,0,0,1,2.33.27,6.14,6.14,0,0,1,2,.85,4.46,4.46,0,0,1,1.4,1.55,4.64,4.64,0,0,1,.53,2.31c0,.21,0,.49,0,.83a7.28,7.28,0,0,1-.11.87l-1.24,6.82c-.12.67-.22,1.35-.29,2.05s-.1,1.28-.1,1.75h-3a11.29,11.29,0,0,1,.05-1.13c0-.4.09-.81.16-1.21H337a7.58,7.58,0,0,1-2.63,2.06,8.51,8.51,0,0,1-5.12.43,5.17,5.17,0,0,1-1.68-.73,4,4,0,0,1-1.76-3.5,4.81,4.81,0,0,1,1.13-3.32,7.56,7.56,0,0,1,2.93-2,15.65,15.65,0,0,1,4-.92A44.32,44.32,0,0,1,338.38,118Zm-.89,2.41c-.92,0-1.88,0-2.88.13a12.9,12.9,0,0,0-2.72.5,5.11,5.11,0,0,0-2,1.08,2.38,2.38,0,0,0-.78,1.85,2.18,2.18,0,0,0,.26,1.15,2.25,2.25,0,0,0,.71.73,2.82,2.82,0,0,0,1,.39,6,6,0,0,0,1.12.11,5.84,5.84,0,0,0,2.06-.37,5.43,5.43,0,0,0,1.67-1,5.79,5.79,0,0,0,1.19-1.49,5.61,5.61,0,0,0,.65-1.81l.25-1.25Z"/><path class="cls-6" d="M347.88,113.59c.11-.71.19-1.35.23-1.91h3.13c0,.16-.05.37-.07.62s-.06.51-.09.78-.07.53-.11.78-.06.47-.09.66H351a7.47,7.47,0,0,1,2.23-2.4,5.21,5.21,0,0,1,3-.91,5.5,5.5,0,0,1,1.32.14l-.57,3.1a5.9,5.9,0,0,0-1.46-.18,5,5,0,0,0-2.13.44,5.27,5.27,0,0,0-1.6,1.19,5.88,5.88,0,0,0-1.08,1.73,9.38,9.38,0,0,0-.59,2l-1.56,8.84h-3.27l2.31-13.18C347.67,114.88,347.78,114.3,347.88,113.59Z"/><path class="cls-6" d="M360.4,121.09a1.89,1.89,0,0,0,0,.3v.27a4.44,4.44,0,0,0,.37,1.83,4.51,4.51,0,0,0,1,1.45,4.4,4.4,0,0,0,1.57,1,5.33,5.33,0,0,0,1.93.34,6.19,6.19,0,0,0,3.11-.73,7.48,7.48,0,0,0,2.19-1.83l1.95,1.85A9.73,9.73,0,0,1,365,129a9.52,9.52,0,0,1-3.11-.5,6.9,6.9,0,0,1-2.48-1.46,6.64,6.64,0,0,1-1.64-2.34,8.09,8.09,0,0,1-.58-3.16,10.62,10.62,0,0,1,.74-4,10.48,10.48,0,0,1,2.06-3.29,9.74,9.74,0,0,1,3.13-2.22,9.48,9.48,0,0,1,3.91-.82,7.19,7.19,0,0,1,5.11,1.76,6.38,6.38,0,0,1,1.89,4.92q0,.49-.09,1.44a14.79,14.79,0,0,1-.27,1.76Zm10.41-2.42a4.08,4.08,0,0,0,.06-.53c0-.19,0-.37,0-.53a3.72,3.72,0,0,0-1.06-2.72,4.15,4.15,0,0,0-3.09-1.08,5.57,5.57,0,0,0-2.2.42,6.55,6.55,0,0,0-1.76,1.1,6.25,6.25,0,0,0-1.28,1.57,6.32,6.32,0,0,0-.73,1.77Z"/><path class="cls-6" d="M389.89,111.68l1.17,12.86h.08l6.57-12.86H401l1.67,12.86h.11l6.39-12.86h3.49l-8.89,16.83h-3.41l-1.7-12.75h-.07L392,128.51h-3.41l-2.09-16.83Z"/><path class="cls-6" d="M421.05,129a9.15,9.15,0,0,1-3.2-.54,7.27,7.27,0,0,1-2.52-1.51,6.92,6.92,0,0,1-1.67-2.32,7.29,7.29,0,0,1-.6-3,11.1,11.1,0,0,1,.72-4,10.6,10.6,0,0,1,2.06-3.32,9.8,9.8,0,0,1,3.2-2.27,10,10,0,0,1,4.14-.84,9.15,9.15,0,0,1,3.2.54,7.55,7.55,0,0,1,2.52,1.49,6.62,6.62,0,0,1,1.65,2.29,7.32,7.32,0,0,1,.59,3,11.08,11.08,0,0,1-.73,4,10.13,10.13,0,0,1-2.06,3.34,9.68,9.68,0,0,1-3.18,2.27A9.85,9.85,0,0,1,421.05,129Zm6.75-10.16a5.24,5.24,0,0,0-.34-1.92,4.5,4.5,0,0,0-1-1.55,4.31,4.31,0,0,0-1.52-1,5.25,5.25,0,0,0-2-.37,6,6,0,0,0-2.67.6,6.68,6.68,0,0,0-2.07,1.62,7.27,7.27,0,0,0-1.36,2.34,8.53,8.53,0,0,0-.48,2.83,4.93,4.93,0,0,0,1.28,3.5,4.66,4.66,0,0,0,3.56,1.37,6,6,0,0,0,2.66-.59A6.27,6.27,0,0,0,426,124a7.31,7.31,0,0,0,1.35-2.36A8.43,8.43,0,0,0,427.8,118.82Z"/><path class="cls-6" d="M436.88,113.59c.1-.71.18-1.35.23-1.91h3.12c0,.16,0,.37-.07.62s-.05.51-.09.78-.07.53-.1.78-.07.47-.09.66H440a7.33,7.33,0,0,1,2.22-2.4,5.24,5.24,0,0,1,3-.91,5.36,5.36,0,0,1,1.31.14l-.57,3.1a5.88,5.88,0,0,0-1.45-.18,4.91,4.91,0,0,0-2.13.44,5.27,5.27,0,0,0-1.6,1.19,6.12,6.12,0,0,0-1.09,1.73,9.36,9.36,0,0,0-.58,2l-1.57,8.84h-3.26l2.3-13.18C436.67,114.88,436.77,114.3,436.88,113.59Z"/><path class="cls-6" d="M456.26,114.37H452.1l-1.6,8.85a6.36,6.36,0,0,0-.11,1.07,1.65,1.65,0,0,0,.55,1.44,2.6,2.6,0,0,0,1.48.37,4.77,4.77,0,0,0,1-.11,2.79,2.79,0,0,0,.82-.28l-.25,2.63a5.47,5.47,0,0,1-1.22.33,8,8,0,0,1-1.44.13,5.06,5.06,0,0,1-3.11-.87,3.23,3.23,0,0,1-1.16-2.75c0-.27,0-.54,0-.82a8.43,8.43,0,0,1,.11-.86l1.63-9.13h-3.2l.5-2.69h3.16l.82-4.84h3.27l-.85,4.84h4.22Z"/><path class="cls-6" d="M468.9,111.21a5.56,5.56,0,0,1,4.2,1.48,5.16,5.16,0,0,1,1.42,3.71,9.54,9.54,0,0,1-.15,1.71l-1.84,10.4h-3.31l1.64-9.3a8.83,8.83,0,0,0,.21-1.89,3.83,3.83,0,0,0-.71-2.38,3.07,3.07,0,0,0-2.56-.92,4.59,4.59,0,0,0-3.46,1.51,7.74,7.74,0,0,0-1.9,4.07l-1.57,8.91h-3.3l4.73-26.85h3.3l-2.2,12.57h.07a6.83,6.83,0,0,1,2.22-2.15A6,6,0,0,1,468.9,111.21Z"/><path class="cls-6" d="M322.5,147.24a3.56,3.56,0,0,0-1.44-1.44,4.46,4.46,0,0,0-2.26-.59,6.15,6.15,0,0,0-2.68.59,6.39,6.39,0,0,0-2.11,1.6,7.23,7.23,0,0,0-1.39,2.34,8.06,8.06,0,0,0-.5,2.83,6,6,0,0,0,.31,1.92,4.32,4.32,0,0,0,.9,1.54,4.45,4.45,0,0,0,1.51,1.05,5.35,5.35,0,0,0,2.12.39,5.86,5.86,0,0,0,2.7-.57,6.88,6.88,0,0,0,1.92-1.46l2,1.85a11,11,0,0,1-3,2.15,8.69,8.69,0,0,1-3.82.8,9.73,9.73,0,0,1-3.28-.53,7.44,7.44,0,0,1-2.51-1.49,6.66,6.66,0,0,1-1.6-2.3,7.4,7.4,0,0,1-.56-3,11.21,11.21,0,0,1,.72-4,10.47,10.47,0,0,1,2.06-3.34,9.88,9.88,0,0,1,3.22-2.29,10,10,0,0,1,4.19-.85,9.31,9.31,0,0,1,1.83.18,8.48,8.48,0,0,1,1.71.51A5.76,5.76,0,0,1,324,144a4.63,4.63,0,0,1,1.09,1.28Z"/><path class="cls-6" d="M329.57,152.35a1.25,1.25,0,0,0,0,.31v.26a4.53,4.53,0,0,0,.37,1.83,4.56,4.56,0,0,0,2.6,2.42,5.59,5.59,0,0,0,1.93.34,6.3,6.3,0,0,0,3.11-.73,7.53,7.53,0,0,0,2.19-1.83l1.95,1.85a9.77,9.77,0,0,1-7.56,3.44,9.48,9.48,0,0,1-3.11-.5,7,7,0,0,1-2.49-1.45,6.72,6.72,0,0,1-1.64-2.35,8.06,8.06,0,0,1-.58-3.16,10.67,10.67,0,0,1,.75-4,10.08,10.08,0,0,1,2.06-3.28,9.62,9.62,0,0,1,3.12-2.23,9.47,9.47,0,0,1,3.91-.81,7.17,7.17,0,0,1,5.12,1.76,6.41,6.41,0,0,1,1.88,4.92c0,.33,0,.81-.09,1.43a14.48,14.48,0,0,1-.27,1.76ZM340,149.94c0-.17,0-.34,0-.53s0-.37,0-.54a3.74,3.74,0,0,0-1.07-2.72,4.15,4.15,0,0,0-3.09-1.08,5.43,5.43,0,0,0-2.2.43,6.46,6.46,0,0,0-1.76,1.1,6.2,6.2,0,0,0-1.28,1.56,7,7,0,0,0-.73,1.78Z"/><path class="cls-6" d="M349.64,159.78h-3.3l4.72-26.86h3.34Z"/><path class="cls-6" d="M358.88,152.35a1.25,1.25,0,0,0,0,.31v.26a4.53,4.53,0,0,0,.37,1.83,4.56,4.56,0,0,0,2.6,2.42,5.59,5.59,0,0,0,1.93.34,6.3,6.3,0,0,0,3.11-.73A7.53,7.53,0,0,0,369,155L371,156.8a9.77,9.77,0,0,1-7.56,3.44,9.48,9.48,0,0,1-3.11-.5,7,7,0,0,1-2.49-1.45,6.72,6.72,0,0,1-1.64-2.35,8.24,8.24,0,0,1-.58-3.16,10.67,10.67,0,0,1,.75-4,10.08,10.08,0,0,1,2.06-3.28,9.62,9.62,0,0,1,3.12-2.23,9.47,9.47,0,0,1,3.91-.81,7.17,7.17,0,0,1,5.12,1.76,6.41,6.41,0,0,1,1.88,4.92c0,.33,0,.81-.09,1.43a14.48,14.48,0,0,1-.27,1.76Zm10.41-2.41c0-.17,0-.34,0-.53s0-.37,0-.54a3.74,3.74,0,0,0-1.07-2.72,4.15,4.15,0,0,0-3.09-1.08,5.43,5.43,0,0,0-2.2.43,6.46,6.46,0,0,0-1.76,1.1,6.2,6.2,0,0,0-1.28,1.56,7,7,0,0,0-.73,1.78Z"/><path class="cls-6" d="M379.31,156.94l-.5,2.84h-3.16l4.72-26.86h3.31l-2.31,12.72h.07a7.37,7.37,0,0,1,2.54-2.26,7.23,7.23,0,0,1,3.57-.9,8.29,8.29,0,0,1,3,.53,6.56,6.56,0,0,1,3.8,3.78,7.85,7.85,0,0,1,.53,3,11.38,11.38,0,0,1-.71,4.07,10.27,10.27,0,0,1-2,3.32,9.28,9.28,0,0,1-3,2.24,9,9,0,0,1-3.81.82,7.59,7.59,0,0,1-3.5-.84,5.43,5.43,0,0,1-2.47-2.43Zm12.25-6.86a5.13,5.13,0,0,0-1.2-3.46,4.35,4.35,0,0,0-3.49-1.41,6,6,0,0,0-2.63.59,6.82,6.82,0,0,0-2.11,1.6,7.47,7.47,0,0,0-1.42,2.36,8,8,0,0,0-.52,2.84,5.7,5.7,0,0,0,.34,2,4.27,4.27,0,0,0,1,1.55,4.64,4.64,0,0,0,1.53,1,5,5,0,0,0,2,.38,6.15,6.15,0,0,0,2.7-.59,6.41,6.41,0,0,0,2.06-1.58A7.18,7.18,0,0,0,391.1,153,8.88,8.88,0,0,0,391.56,150.08Z"/><path class="cls-6" d="M400.68,144.86c.1-.71.18-1.35.23-1.92H404c0,.16,0,.37-.07.62s0,.51-.09.78-.07.54-.1.78-.07.47-.09.66h.07a7.54,7.54,0,0,1,2.22-2.4,5.3,5.3,0,0,1,3-.9,4.91,4.91,0,0,1,1.31.14l-.57,3.09a5.88,5.88,0,0,0-1.45-.18,4.77,4.77,0,0,0-2.13.45,5,5,0,0,0-1.6,1.19,5.86,5.86,0,0,0-1.09,1.72,8.84,8.84,0,0,0-.58,2l-1.57,8.85h-3.27l2.31-13.18C400.47,146.15,400.57,145.57,400.68,144.86Z"/><path class="cls-6" d="M422,149.26c.05-.33.08-.59.11-.78a5.13,5.13,0,0,0,0-.53,2.46,2.46,0,0,0-.92-2.15,4.48,4.48,0,0,0-2.63-.66,7.41,7.41,0,0,0-2.7.53,9.64,9.64,0,0,0-2.35,1.32l-1.35-2.2a10.55,10.55,0,0,1,3.17-1.69,11.08,11.08,0,0,1,3.69-.62,10.46,10.46,0,0,1,2.33.26,6.16,6.16,0,0,1,2,.86,4.33,4.33,0,0,1,1.4,1.54,4.64,4.64,0,0,1,.53,2.31q0,.31,0,.84a7.87,7.87,0,0,1-.11.87L423.93,156c-.12.66-.21,1.34-.29,2s-.1,1.29-.1,1.76h-3c0-.36,0-.74.05-1.14s.09-.8.16-1.21h-.07a7.46,7.46,0,0,1-2.63,2.06,8.51,8.51,0,0,1-5.12.43,4.85,4.85,0,0,1-1.68-.73,4,4,0,0,1-1.76-3.5,4.81,4.81,0,0,1,1.13-3.32,7.51,7.51,0,0,1,2.94-2,15.89,15.89,0,0,1,4-.93A44.32,44.32,0,0,1,422,149.26Zm-.89,2.42q-1.38,0-2.88.12a13.34,13.34,0,0,0-2.71.5,5.22,5.22,0,0,0-2,1.08,2.39,2.39,0,0,0-.78,1.85,2.32,2.32,0,0,0,.26,1.16,2.22,2.22,0,0,0,.71.72,3,3,0,0,0,1,.4,6,6,0,0,0,1.12.1,5.55,5.55,0,0,0,3.73-1.38,6,6,0,0,0,1.19-1.5,5.79,5.79,0,0,0,.66-1.81l.24-1.24Z"/><path class="cls-6" d="M438.78,145.64h-4.16l-1.6,8.85a6.15,6.15,0,0,0-.1,1.06,1.62,1.62,0,0,0,.55,1.44,2.54,2.54,0,0,0,1.47.37,4.92,4.92,0,0,0,1-.1,2.82,2.82,0,0,0,.81-.29l-.25,2.63a5.44,5.44,0,0,1-1.22.34,8.93,8.93,0,0,1-1.44.12,5.06,5.06,0,0,1-3.11-.87,3.22,3.22,0,0,1-1.15-2.75c0-.26,0-.53,0-.82s.06-.57.11-.85l1.63-9.13h-3.19l.49-2.7h3.16l.82-4.83h3.27l-.85,4.83h4.22Z"/><path class="cls-6" d="M443.4,159.78h-3.27l2.95-16.84h3.3Zm4.37-23a2.15,2.15,0,0,1-.6,1.53,1.93,1.93,0,0,1-1.48.64,2.17,2.17,0,0,1-1.46-.53,1.86,1.86,0,0,1-.62-1.5,2.17,2.17,0,0,1,2.15-2.2,2,2,0,0,1,1.43.57A2,2,0,0,1,447.77,136.79Z"/><path class="cls-6" d="M455.26,142.94c-.05.33-.1.78-.16,1.33s-.12,1-.19,1.4H455a7.07,7.07,0,0,1,2.36-2.32,6.15,6.15,0,0,1,3.25-.87A5.63,5.63,0,0,1,464.8,144a5.11,5.11,0,0,1,1.44,3.71,10.39,10.39,0,0,1-.14,1.71l-1.85,10.41H461l1.63-9.31a8.81,8.81,0,0,0,.21-1.88,3.74,3.74,0,0,0-.71-2.38,3,3,0,0,0-2.55-.93,4.66,4.66,0,0,0-3.45,1.51,7.65,7.65,0,0,0-1.92,4l-1.56,8.95h-3.31l2.31-13.18q.15-.67.3-1.74t.24-1.92Z"/><path class="cls-6" d="M470.75,162.73a6.47,6.47,0,0,0,2.47,2,7.78,7.78,0,0,0,3.32.73,7.5,7.5,0,0,0,2.84-.48,5.64,5.64,0,0,0,2-1.32,6.16,6.16,0,0,0,1.26-2,14.62,14.62,0,0,0,.74-2.45l.43-2.24h-.07a7.42,7.42,0,0,1-2.59,2.19,7.63,7.63,0,0,1-3.49.8,8.08,8.08,0,0,1-3-.55,7,7,0,0,1-2.31-1.51,6.44,6.44,0,0,1-1.47-2.31,8.31,8.31,0,0,1-.52-3,11,11,0,0,1,.71-3.95,10.24,10.24,0,0,1,2-3.23,9.49,9.49,0,0,1,3-2.18,9,9,0,0,1,3.84-.8,7.25,7.25,0,0,1,3.59.85,5,5,0,0,1,2.2,2.34h.11l.46-2.73h3.2l-2.81,16a20.26,20.26,0,0,1-.94,3.5,9.21,9.21,0,0,1-1.78,3,8.38,8.38,0,0,1-2.94,2.07,11.23,11.23,0,0,1-4.46.79,12.29,12.29,0,0,1-4.46-.84,8.47,8.47,0,0,1-3.5-2.36Zm2.91-10.34a5.53,5.53,0,0,0,.32,1.9,4.63,4.63,0,0,0,.93,1.54,4,4,0,0,0,1.49,1,5.16,5.16,0,0,0,2,.38,5.93,5.93,0,0,0,2.63-.59,6.77,6.77,0,0,0,2.1-1.56,7.15,7.15,0,0,0,1.38-2.29,7.6,7.6,0,0,0,.5-2.77,4.94,4.94,0,0,0-1.29-3.49,4.64,4.64,0,0,0-3.54-1.38,6.27,6.27,0,0,0-2.66.55,6,6,0,0,0-2.06,1.51,7,7,0,0,0-1.34,2.27A8.37,8.37,0,0,0,473.66,152.39Z"/></svg>