<svg id="Layer_1" data-name="Layer 1" xmlns="http://www.w3.org/2000/svg" viewBox="0 0 487.49 149.79"><defs><style>.cls-1{fill:none;}.cls-2{fill:#fff;}</style></defs><path class="cls-1" d="M77.73,137.06c-28.88,0-52.38-25.49-52.38-56.83S48.85,23.4,77.73,23.4a48.85,48.85,0,0,1,6.32.42v-5a51,51,0,0,0-5.55-.3c-31.48,0-57.1,27-57.1,61.7S47,142.17,78.5,142.17a51,51,0,0,0,5.55-.3v-5.23A48.85,48.85,0,0,1,77.73,137.06Z" transform="translate(-11.29 -8.4)"/><path class="cls-1" d="M78.12,63c-8.45,0-15.32,7.71-15.32,17.2s6.87,17.2,15.32,17.2a13.88,13.88,0,0,0,5.93-1.34V64.37A13.88,13.88,0,0,0,78.12,63Z" transform="translate(-11.29 -8.4)"/><path class="cls-1" d="M77.73,121.78c-21.42,0-38.84-18.84-38.84-42s17.42-42,38.84-42a36.68,36.68,0,0,1,6.32.56V33.51A38.78,38.78,0,0,0,77.73,33C54.14,33,35,54.18,35,80.23s19.19,47.24,42.78,47.24a38.78,38.78,0,0,0,6.32-.52v-5.74A35.71,35.71,0,0,1,77.73,121.78Z" transform="translate(-11.29 -8.4)"/><path class="cls-1" d="M78.12,107C64.38,107,53.2,95,53.2,80.23s11.18-26.8,24.92-26.8a23.29,23.29,0,0,1,5.93.78V49.06a25.93,25.93,0,0,0-6.32-.8c-15.64,0-28.38,14.15-28.38,31.53s12.74,31.52,28.38,31.52a25.93,25.93,0,0,0,6.32-.79v-4.27A23.29,23.29,0,0,1,78.12,107Z" transform="translate(-11.29 -8.4)"/><path class="cls-2" d="M53.2,80.23C53.2,95,64.38,107,78.12,107a23.29,23.29,0,0,0,5.93-.78V96.09a13.88,13.88,0,0,1-5.93,1.34c-8.45,0-15.32-7.72-15.32-17.2S69.67,63,78.12,63a13.88,13.88,0,0,1,5.93,1.34V54.21a23.29,23.29,0,0,0-5.93-.78C64.38,53.43,53.2,65.45,53.2,80.23Z" transform="translate(-11.29 -8.4)"/><path class="cls-2" d="M77.73,111.31c-15.64,0-28.63-14.14-28.63-31.52s13-31.53,28.63-31.53a25.93,25.93,0,0,1,6.32.8V38.36a36.68,36.68,0,0,0-6.32-.56c-21.42,0-39.1,18.84-39.1,42s17.68,42,39.1,42a35.71,35.71,0,0,0,6.32-.57V110.52A25.93,25.93,0,0,1,77.73,111.31Z" transform="translate(-11.29 -8.4)"/><path class="cls-2" d="M25,80.23c0,31.34,23.83,56.83,52.71,56.83a48.85,48.85,0,0,0,6.32-.42V127a38.78,38.78,0,0,1-6.32.52c-23.59,0-43.12-21.19-43.12-47.24S54.14,33,77.73,33a38.78,38.78,0,0,1,6.32.52V23.82a48.85,48.85,0,0,0-6.32-.42C48.85,23.4,25,48.89,25,80.23Z" transform="translate(-11.29 -8.4)"/><path class="cls-2" d="M78.5,142.17C47,142.17,20.89,115,20.89,80.35S47,18.53,78.5,18.53a51,51,0,0,1,5.55.3V9.19c-1.83-.17-3.68-.26-5.55-.26-36.77,0-67.21,31.45-67.21,71.42s30.44,71.42,67.21,71.42c1.87,0,3.72-.09,5.55-.26v-9.64A51,51,0,0,1,78.5,142.17Z" transform="translate(-11.29 -8.4)"/><path class="cls-2" d="M98.72,42.68a34.28,34.28,0,0,1,2.42-13.13,30.05,30.05,0,0,1,6.59-10.06,28.88,28.88,0,0,1,9.84-6.44,32.3,32.3,0,0,1,12.1-2.26,34.31,34.31,0,0,1,12.46,2.26,28.64,28.64,0,0,1,9.81,6.1l-11.74,15a10.46,10.46,0,0,0-4-3.37,12.44,12.44,0,0,0-5.38-1.15,11.23,11.23,0,0,0-4.5.9,10.48,10.48,0,0,0-3.66,2.6,12.11,12.11,0,0,0-2.45,4.13,15.76,15.76,0,0,0-.89,5.42,14.35,14.35,0,0,0,.93,5.33,12.77,12.77,0,0,0,2.49,4.05,10.48,10.48,0,0,0,3.66,2.6,11,11,0,0,0,4.42.89,10.61,10.61,0,0,0,5.66-1.45,12.14,12.14,0,0,0,3.74-3.41l11.74,14.93a28.44,28.44,0,0,1-9.49,6.52,33.9,33.9,0,0,1-24.88.13,29.11,29.11,0,0,1-9.84-6.53,30.56,30.56,0,0,1-6.59-10.06A33.72,33.72,0,0,1,98.72,42.68Z" transform="translate(-11.29 -8.4)"/><path class="cls-2" d="M199.36,50.86c0,.74,0,1.5,0,2.26s-.06,1.41-.12,1.92H170.75a3.9,3.9,0,0,0,.76,2.13,6.53,6.53,0,0,0,1.69,1.62,7.45,7.45,0,0,0,2.25,1,9.41,9.41,0,0,0,2.53.34,8.63,8.63,0,0,0,4.3-1A8.18,8.18,0,0,0,184.89,57l13.19,7.08a19.85,19.85,0,0,1-8.16,7.67A27.83,27.83,0,0,1,168.58,73a21.91,21.91,0,0,1-13-12.1,25.63,25.63,0,0,1-2-10.49,26,26,0,0,1,1.84-10A22,22,0,0,1,167.89,28a24.91,24.91,0,0,1,9.21-1.7,22,22,0,0,1,9.08,1.83,20.51,20.51,0,0,1,7,5.12,23.38,23.38,0,0,1,4.55,7.8A29.07,29.07,0,0,1,199.36,50.86Zm-16-6.39a5.11,5.11,0,0,0-1.65-3.92A6.27,6.27,0,0,0,177.26,39a6.2,6.2,0,0,0-4.74,1.79,6.63,6.63,0,0,0-1.93,3.67Z" transform="translate(-11.29 -8.4)"/><path class="cls-2" d="M205.87,8.4h19V72.86h-19Z" transform="translate(-11.29 -8.4)"/><path class="cls-2" d="M277.5,50.86c0,.74,0,1.5-.05,2.26s-.06,1.41-.12,1.92H248.88a4,4,0,0,0,.76,2.13,6.69,6.69,0,0,0,1.69,1.62,7.45,7.45,0,0,0,2.25,1,9.46,9.46,0,0,0,2.53.34,8.63,8.63,0,0,0,4.3-1A8.11,8.11,0,0,0,263,57l13.18,7.08a19.85,19.85,0,0,1-8.16,7.67A27.83,27.83,0,0,1,246.71,73a21.86,21.86,0,0,1-13-12.1,25.63,25.63,0,0,1-2-10.49,25.85,25.85,0,0,1,1.85-10A21.91,21.91,0,0,1,246,28a24.91,24.91,0,0,1,9.21-1.7,22,22,0,0,1,9.08,1.83,20.55,20.55,0,0,1,7,5.12,23.52,23.52,0,0,1,4.54,7.8A29.07,29.07,0,0,1,277.5,50.86Zm-16-6.39a5.11,5.11,0,0,0-1.65-3.92A6.27,6.27,0,0,0,255.39,39a6.2,6.2,0,0,0-4.74,1.79,6.63,6.63,0,0,0-1.93,3.67Z" transform="translate(-11.29 -8.4)"/><path class="cls-2" d="M333,50.27A31.2,31.2,0,0,1,331.72,59a25.23,25.23,0,0,1-3.65,7.64,18.58,18.58,0,0,1-6,5.41,16.66,16.66,0,0,1-8.34,2,18.1,18.1,0,0,1-7.46-1.58,12.37,12.37,0,0,1-5.37-4.31h-.16v4.69H284V8.4h18.56V31.59h.17a11.7,11.7,0,0,1,4.88-3.53,16,16,0,0,1,6.1-1.24,16.58,16.58,0,0,1,8.34,2.05,18.76,18.76,0,0,1,6,5.37,24.79,24.79,0,0,1,3.65,7.5A30.09,30.09,0,0,1,333,50.27Zm-17.2,0a8.07,8.07,0,0,0-1.77-5.2,6.19,6.19,0,0,0-5.15-2.22,6.68,6.68,0,0,0-5.26,2.22,7.58,7.58,0,0,0-2,5.2,7.82,7.82,0,0,0,2,5.37,6.68,6.68,0,0,0,5.26,2.22A6.25,6.25,0,0,0,314,55.68,8.29,8.29,0,0,0,315.76,50.27Z" transform="translate(-11.29 -8.4)"/><path class="cls-2" d="M339.79,28h17.84v5.12h.17a11.56,11.56,0,0,1,4.06-4.52,11.13,11.13,0,0,1,6.31-1.79,11.92,11.92,0,0,1,3.53.43L370.25,44a12.82,12.82,0,0,0-2-.39,18.16,18.16,0,0,0-2-.12,7.75,7.75,0,0,0-5.79,2.21,7.5,7.5,0,0,0-2.17,5.46V72.86H339.79Z" transform="translate(-11.29 -8.4)"/><path class="cls-2" d="M396.54,44.38a3.49,3.49,0,0,0-1.33-3,5.69,5.69,0,0,0-3.49-1,10.67,10.67,0,0,0-4.87,1.15,19.64,19.64,0,0,0-4.05,2.68l-9.25-9.72a26.67,26.67,0,0,1,9.16-6.05,29.14,29.14,0,0,1,10.94-2.13,24,24,0,0,1,10,1.79A15.27,15.27,0,0,1,409.84,33a19.55,19.55,0,0,1,3.22,7.34,41.31,41.31,0,0,1,.92,8.86V72.86h-16.8V69.28H397A8.91,8.91,0,0,1,392.44,73a16.48,16.48,0,0,1-5.79,1.11,18.09,18.09,0,0,1-5.1-.77,13.78,13.78,0,0,1-4.74-2.47,13.11,13.11,0,0,1-3.5-4.44,14.94,14.94,0,0,1-1.37-6.73A12.09,12.09,0,0,1,374.23,52a15.7,15.7,0,0,1,5.83-4.61A27.16,27.16,0,0,1,388,45.15a63,63,0,0,1,8.56-.6Zm.16,9.89a19.23,19.23,0,0,0-6.59.94,3.48,3.48,0,0,0-2.49,3.5,2.92,2.92,0,0,0,.4,1.58,3.62,3.62,0,0,0,1,1.06,4.74,4.74,0,0,0,1.41.64,5.36,5.36,0,0,0,1.41.21,5.42,5.42,0,0,0,4.26-1.79,6.62,6.62,0,0,0,1.61-4.6V54.27Z" transform="translate(-11.29 -8.4)"/><path class="cls-2" d="M439.22,74.06q-8.52,0-12.62-3.88t-4.1-12.07v-16h-5.94V28h5.86V18h18V28h9.16V42.08h-9.16V54c0,2.16.44,3.62,1.32,4.39a5.41,5.41,0,0,0,3.66,1.15,10,10,0,0,0,1.85-.17,14.31,14.31,0,0,0,1.53-.34V72.52a15.51,15.51,0,0,1-4.06,1.11A34.68,34.68,0,0,1,439.22,74.06Z" transform="translate(-11.29 -8.4)"/><path class="cls-2" d="M498.79,50.86c0,.74,0,1.5,0,2.26s-.07,1.41-.12,1.92H470.17a4,4,0,0,0,.76,2.13,6.69,6.69,0,0,0,1.69,1.62,7.45,7.45,0,0,0,2.25,1,9.46,9.46,0,0,0,2.53.34,8.69,8.69,0,0,0,4.31-1A8.18,8.18,0,0,0,484.32,57l13.18,7.08a19.85,19.85,0,0,1-8.16,7.67A27.83,27.83,0,0,1,468,73a21.86,21.86,0,0,1-13-12.1,25.63,25.63,0,0,1-2-10.49,25.85,25.85,0,0,1,1.85-10A21.89,21.89,0,0,1,467.32,28a24.82,24.82,0,0,1,9.2-1.7,22,22,0,0,1,9.08,1.83,20.55,20.55,0,0,1,7,5.12,23.35,23.35,0,0,1,4.54,7.8A29.07,29.07,0,0,1,498.79,50.86Zm-16-6.39a5.11,5.11,0,0,0-1.65-3.92,7.2,7.2,0,0,0-9.2.25A6.63,6.63,0,0,0,470,44.47Z" transform="translate(-11.29 -8.4)"/><path class="cls-2" d="M98.72,118a34.28,34.28,0,0,1,2.42-13.13,30.09,30.09,0,0,1,6.59-10.07,28.85,28.85,0,0,1,9.84-6.43,32.3,32.3,0,0,1,12.1-2.26,34.31,34.31,0,0,1,12.46,2.26,28.62,28.62,0,0,1,9.81,6.09l-11.74,15a10.46,10.46,0,0,0-4-3.37A12.44,12.44,0,0,0,130.8,105a11.23,11.23,0,0,0-4.5.9,10.35,10.35,0,0,0-3.66,2.6,12.11,12.11,0,0,0-2.45,4.13,15.76,15.76,0,0,0-.89,5.42,14.39,14.39,0,0,0,.93,5.33,12.77,12.77,0,0,0,2.49,4,10.61,10.61,0,0,0,3.66,2.6,11.19,11.19,0,0,0,4.42.89,10.61,10.61,0,0,0,5.66-1.45A12.14,12.14,0,0,0,140.2,126l11.74,14.92a28.32,28.32,0,0,1-9.49,6.53,33.83,33.83,0,0,1-24.88.12,28.93,28.93,0,0,1-9.84-6.52A30.66,30.66,0,0,1,101.14,131,33.72,33.72,0,0,1,98.72,118Z" transform="translate(-11.29 -8.4)"/><path class="cls-2" d="M177.18,119.7a3.49,3.49,0,0,0-1.33-3,5.69,5.69,0,0,0-3.49-1,10.67,10.67,0,0,0-4.87,1.15,19.32,19.32,0,0,0-4.06,2.68l-9.24-9.72a26.67,26.67,0,0,1,9.16-6,29.09,29.09,0,0,1,10.93-2.13,24,24,0,0,1,10,1.79,15.34,15.34,0,0,1,6.23,4.94,19.55,19.55,0,0,1,3.22,7.34,41.31,41.31,0,0,1,.92,8.86v23.62h-16.8V144.6h-.16a8.91,8.91,0,0,1-4.58,3.67,16.69,16.69,0,0,1-5.79,1.1,18.07,18.07,0,0,1-5.1-.76,13.55,13.55,0,0,1-4.74-2.48,12.86,12.86,0,0,1-3.5-4.43,14.94,14.94,0,0,1-1.37-6.73,12.06,12.06,0,0,1,2.29-7.64,15.78,15.78,0,0,1,5.83-4.6,27.16,27.16,0,0,1,7.92-2.26,63,63,0,0,1,8.56-.6Zm.16,9.89a19.23,19.23,0,0,0-6.59.94,3.48,3.48,0,0,0-2.49,3.5,2.86,2.86,0,0,0,.4,1.57,3.43,3.43,0,0,0,1,1.07,4.74,4.74,0,0,0,1.41.64,5.36,5.36,0,0,0,1.41.21,5.45,5.45,0,0,0,4.26-1.79,6.63,6.63,0,0,0,1.6-4.6v-1.54Z" transform="translate(-11.29 -8.4)"/><path class="cls-2" d="M202.26,103.33H220.1v5.12h.16a11.64,11.64,0,0,1,4.06-4.52,11.09,11.09,0,0,1,6.31-1.79,12.32,12.32,0,0,1,3.54.42l-1.45,16.72a12.72,12.72,0,0,0-2-.39,18.2,18.2,0,0,0-2-.13A7.7,7.7,0,0,0,223,121a7.5,7.5,0,0,0-2.17,5.46v21.74H202.26Z" transform="translate(-11.29 -8.4)"/><path class="cls-2" d="M280.71,126.18c0,.74,0,1.49,0,2.26s-.07,1.41-.12,1.92H252.09a4,4,0,0,0,.77,2.13,6.48,6.48,0,0,0,1.68,1.62,7.45,7.45,0,0,0,2.25,1,10,10,0,0,0,2.54.34,8.65,8.65,0,0,0,4.3-1,8.31,8.31,0,0,0,2.61-2.18l13.18,7.08a19.73,19.73,0,0,1-8.16,7.67,26.2,26.2,0,0,1-12.41,2.82,26.71,26.71,0,0,1-8.93-1.54,21.91,21.91,0,0,1-13-12.11,25.55,25.55,0,0,1-2-10.48,26,26,0,0,1,1.85-10,21.89,21.89,0,0,1,12.5-12.41,24.66,24.66,0,0,1,9.2-1.7,22.07,22.07,0,0,1,9.09,1.83,20.61,20.61,0,0,1,7,5.12,23,23,0,0,1,4.54,7.8A29.07,29.07,0,0,1,280.71,126.18Zm-16-6.39a5.14,5.14,0,0,0-1.64-3.92,7.21,7.21,0,0,0-9.21.25,6.66,6.66,0,0,0-1.93,3.67Z" transform="translate(-11.29 -8.4)"/><path class="cls-2" d="M317.34,105.86a3.56,3.56,0,0,0-1.44-1.44,4.46,4.46,0,0,0-2.26-.59,6.15,6.15,0,0,0-2.68.59,6.39,6.39,0,0,0-2.11,1.6,7.34,7.34,0,0,0-1.39,2.34,8.06,8.06,0,0,0-.5,2.83,6,6,0,0,0,.31,1.92,4.2,4.2,0,0,0,2.41,2.59,5.35,5.35,0,0,0,2.12.39,5.86,5.86,0,0,0,2.7-.57,6.85,6.85,0,0,0,1.91-1.45l2,1.84a11,11,0,0,1-3,2.15,8.55,8.55,0,0,1-3.82.8,9.69,9.69,0,0,1-3.28-.53,7.28,7.28,0,0,1-2.51-1.49,6.72,6.72,0,0,1-1.6-2.29,7.49,7.49,0,0,1-.57-3,11.21,11.21,0,0,1,.73-4,10.4,10.4,0,0,1,2.06-3.34,9.88,9.88,0,0,1,3.22-2.29,10,10,0,0,1,4.19-.85,9.31,9.31,0,0,1,1.83.18,8.68,8.68,0,0,1,1.71.51,6.42,6.42,0,0,1,1.45.87,4.63,4.63,0,0,1,1.09,1.28Z" transform="translate(-11.29 -8.4)"/><path class="cls-2" d="M333.22,107.88c0-.33.08-.59.1-.78a3.32,3.32,0,0,0,0-.53,2.46,2.46,0,0,0-.92-2.15,4.5,4.5,0,0,0-2.63-.66,7.22,7.22,0,0,0-2.7.54,9.3,9.3,0,0,0-2.35,1.31l-1.35-2.2a10.84,10.84,0,0,1,3.16-1.69,11.45,11.45,0,0,1,3.7-.62,10,10,0,0,1,2.33.27,6,6,0,0,1,2,.85,4.42,4.42,0,0,1,1.4,1.54,4.75,4.75,0,0,1,.53,2.31c0,.22,0,.49,0,.84a7.87,7.87,0,0,1-.11.87l-1.24,6.82c-.12.66-.22,1.34-.29,2s-.1,1.29-.1,1.76h-3c0-.35,0-.73,0-1.14s.09-.8.16-1.2h-.07a7.7,7.7,0,0,1-2.63,2.06,8.19,8.19,0,0,1-3.34.64,8.09,8.09,0,0,1-1.78-.22,4.9,4.9,0,0,1-1.69-.73,4.13,4.13,0,0,1-1.26-1.36,4.21,4.21,0,0,1-.49-2.14,4.81,4.81,0,0,1,1.13-3.32,7.54,7.54,0,0,1,2.93-1.95,15.65,15.65,0,0,1,4-.92A41.56,41.56,0,0,1,333.22,107.88Zm-.89,2.42q-1.38,0-2.88.12a13.57,13.57,0,0,0-2.72.5,5.13,5.13,0,0,0-2,1.09,2.37,2.37,0,0,0-.79,1.84,2.21,2.21,0,0,0,.27,1.16,2.35,2.35,0,0,0,.71.73,2.82,2.82,0,0,0,1,.39,5.91,5.91,0,0,0,1.12.1,5.55,5.55,0,0,0,3.73-1.38,6.15,6.15,0,0,0,1.19-1.49,5.92,5.92,0,0,0,.65-1.82l.25-1.24Z" transform="translate(-11.29 -8.4)"/><path class="cls-2" d="M342.72,103.48c.11-.71.18-1.35.23-1.92h3.13c0,.17-.05.37-.07.62s-.06.51-.09.78-.07.54-.11.79-.06.46-.09.65h.07A7.62,7.62,0,0,1,348,102a5.26,5.26,0,0,1,3-.91,5.5,5.5,0,0,1,1.32.14l-.57,3.09a6,6,0,0,0-1.46-.18,4.83,4.83,0,0,0-2.13.45,5,5,0,0,0-1.6,1.19,6,6,0,0,0-1.08,1.72,9.38,9.38,0,0,0-.59,2l-1.56,8.85h-3.27l2.31-13.18Q342.55,104.54,342.72,103.48Z" transform="translate(-11.29 -8.4)"/><path class="cls-2" d="M355.24,111a1.78,1.78,0,0,0,0,.3v.26a4.37,4.37,0,0,0,.37,1.83,4.45,4.45,0,0,0,1,1.46,4.76,4.76,0,0,0,1.56,1,5.65,5.65,0,0,0,1.94.34,6.33,6.33,0,0,0,3.11-.73,7.62,7.62,0,0,0,2.18-1.83l2,1.85A10.11,10.11,0,0,1,364,118a10,10,0,0,1-4.16.87,9.26,9.26,0,0,1-3.11-.5,6.88,6.88,0,0,1-2.48-1.45,6.59,6.59,0,0,1-1.64-2.35,8,8,0,0,1-.58-3.16,10.66,10.66,0,0,1,.74-4,10.43,10.43,0,0,1,2.06-3.28,9.59,9.59,0,0,1,3.13-2.22,9.32,9.32,0,0,1,3.91-.82,7.15,7.15,0,0,1,5.11,1.76,6.38,6.38,0,0,1,1.88,4.92c0,.33,0,.81-.08,1.44a15.12,15.12,0,0,1-.27,1.76Zm10.41-2.42c0-.17,0-.34.06-.53s0-.37,0-.54a3.69,3.69,0,0,0-1.06-2.71,4.11,4.11,0,0,0-3.09-1.09,5.4,5.4,0,0,0-2.2.43,6.32,6.32,0,0,0-3,2.66,6.5,6.5,0,0,0-.73,1.78Z" transform="translate(-11.29 -8.4)"/><path class="cls-2" d="M384.73,101.56l1.17,12.86H386l6.58-12.86h3.3l1.67,12.86h.11L404,101.56h3.48l-8.88,16.84h-3.41l-1.7-12.75h-.07l-6.65,12.75h-3.41l-2.09-16.84Z" transform="translate(-11.29 -8.4)"/><path class="cls-2" d="M415.89,118.86a9.38,9.38,0,0,1-3.2-.53,7.59,7.59,0,0,1-2.52-1.51,7,7,0,0,1-1.67-2.33,7.25,7.25,0,0,1-.61-3,11,11,0,0,1,.73-4,10.49,10.49,0,0,1,2.06-3.32,9.83,9.83,0,0,1,3.2-2.28,10.14,10.14,0,0,1,4.14-.83,9.38,9.38,0,0,1,3.2.53,7.72,7.72,0,0,1,2.52,1.49,6.72,6.72,0,0,1,1.65,2.29,7.32,7.32,0,0,1,.59,3,11.26,11.26,0,0,1-.73,4,10.29,10.29,0,0,1-2.06,3.34A9.85,9.85,0,0,1,420,118,10,10,0,0,1,415.89,118.86Zm6.75-10.16a5.28,5.28,0,0,0-.34-1.92,4.45,4.45,0,0,0-1-1.54,4.26,4.26,0,0,0-1.53-1,5.17,5.17,0,0,0-2-.38,5.92,5.92,0,0,0-2.67.61,6.69,6.69,0,0,0-2.08,1.61,7.48,7.48,0,0,0-1.35,2.35,8.27,8.27,0,0,0-.48,2.82,4.92,4.92,0,0,0,1.28,3.5,4.62,4.62,0,0,0,3.56,1.37,6,6,0,0,0,2.66-.58,6.55,6.55,0,0,0,2.08-1.6,7.47,7.47,0,0,0,1.35-2.37A8.39,8.39,0,0,0,422.64,108.7Z" transform="translate(-11.29 -8.4)"/><path class="cls-2" d="M430,103.48c.1-.71.18-1.35.23-1.92h3.12c0,.17,0,.37-.07.62s-.05.51-.09.78-.07.54-.1.79-.07.46-.09.65h.07A7.4,7.4,0,0,1,435.3,102a5.24,5.24,0,0,1,3-.91,5.36,5.36,0,0,1,1.31.14l-.57,3.09a5.88,5.88,0,0,0-1.45-.18,4.85,4.85,0,0,0-2.14.45,5,5,0,0,0-1.59,1.19,6,6,0,0,0-1.09,1.72,8.84,8.84,0,0,0-.58,2l-1.57,8.85h-3.27l2.31-13.18C429.8,104.77,429.9,104.19,430,103.48Z" transform="translate(-11.29 -8.4)"/><path class="cls-2" d="M451.1,104.26h-4.16l-1.6,8.85a6.36,6.36,0,0,0-.11,1.06,1.65,1.65,0,0,0,.55,1.44,2.6,2.6,0,0,0,1.48.37,4.75,4.75,0,0,0,1-.1,2.89,2.89,0,0,0,.82-.29l-.25,2.63a5.44,5.44,0,0,1-1.22.34,8.93,8.93,0,0,1-1.44.12,5,5,0,0,1-3.11-.87,3.21,3.21,0,0,1-1.16-2.75c0-.26,0-.53,0-.82s.06-.56.11-.85l1.63-9.13h-3.2l.5-2.7h3.16l.82-4.83h3.27l-.86,4.83h4.23Z" transform="translate(-11.29 -8.4)"/><path class="cls-2" d="M463.74,101.1a5.55,5.55,0,0,1,4.19,1.47,5.15,5.15,0,0,1,1.43,3.72,9.35,9.35,0,0,1-.15,1.7l-1.84,10.41h-3.31l1.64-9.31a8.74,8.74,0,0,0,.21-1.88,3.83,3.83,0,0,0-.71-2.38,3.06,3.06,0,0,0-2.56-.93,4.63,4.63,0,0,0-3.46,1.51,7.7,7.7,0,0,0-1.9,4.07l-1.57,8.92h-3.3l4.73-26.86h3.3l-2.2,12.58h.07a6.83,6.83,0,0,1,2.22-2.15A5.94,5.94,0,0,1,463.74,101.1Z" transform="translate(-11.29 -8.4)"/><path class="cls-2" d="M317.34,137.12a3.68,3.68,0,0,0-1.44-1.44,4.45,4.45,0,0,0-2.26-.58,6.15,6.15,0,0,0-2.68.58,6.67,6.67,0,0,0-2.11,1.6,7.39,7.39,0,0,0-1.39,2.35,8,8,0,0,0-.5,2.82,5.94,5.94,0,0,0,.31,1.92,4.36,4.36,0,0,0,.9,1.55,4.47,4.47,0,0,0,1.51,1,5.34,5.34,0,0,0,2.12.4,5.86,5.86,0,0,0,2.7-.57,6.88,6.88,0,0,0,1.91-1.46l2,1.85a11.17,11.17,0,0,1-3,2.15,8.69,8.69,0,0,1-3.82.8,9.44,9.44,0,0,1-3.28-.54,7.13,7.13,0,0,1-2.51-1.49,6.62,6.62,0,0,1-1.6-2.29,7.49,7.49,0,0,1-.57-3,11.16,11.16,0,0,1,.73-4,10.29,10.29,0,0,1,2.06-3.34,9.73,9.73,0,0,1,3.22-2.29,10,10,0,0,1,4.19-.86,9.31,9.31,0,0,1,1.83.18,8.7,8.7,0,0,1,1.71.52,5.76,5.76,0,0,1,1.45.87,4.5,4.5,0,0,1,1.09,1.28Z" transform="translate(-11.29 -8.4)"/><path class="cls-2" d="M324.41,142.24a1.24,1.24,0,0,0,0,.3v.27a4.6,4.6,0,0,0,.37,1.83,4.54,4.54,0,0,0,1,1.45,4.27,4.27,0,0,0,1.56,1,5.37,5.37,0,0,0,1.93.34,6.19,6.19,0,0,0,3.11-.73,7.23,7.23,0,0,0,2.19-1.83l1.95,1.85a9.73,9.73,0,0,1-7.57,3.45,9.42,9.42,0,0,1-3.1-.5,7,7,0,0,1-2.49-1.46,6.77,6.77,0,0,1-1.64-2.34,8.09,8.09,0,0,1-.58-3.16,10.63,10.63,0,0,1,.75-4,10.28,10.28,0,0,1,2.05-3.29,9.74,9.74,0,0,1,3.13-2.22,9.48,9.48,0,0,1,3.91-.82,7.24,7.24,0,0,1,5.12,1.76A6.41,6.41,0,0,1,338,139q0,.5-.09,1.44a14.79,14.79,0,0,1-.27,1.76Zm10.41-2.42c0-.16,0-.34.05-.53s0-.37,0-.53a3.72,3.72,0,0,0-1.07-2.72,4.15,4.15,0,0,0-3.09-1.08,5.6,5.6,0,0,0-2.2.42,6.71,6.71,0,0,0-1.76,1.1,6.08,6.08,0,0,0-1.28,1.57,7,7,0,0,0-.73,1.77Z" transform="translate(-11.29 -8.4)"/><path class="cls-2" d="M344.48,149.66h-3.3l4.72-26.85h3.34Z" transform="translate(-11.29 -8.4)"/><path class="cls-2" d="M353.72,142.24a1.24,1.24,0,0,0,0,.3v.27a4.6,4.6,0,0,0,.37,1.83,4.54,4.54,0,0,0,1,1.45,4.27,4.27,0,0,0,1.56,1,5.37,5.37,0,0,0,1.93.34,6.19,6.19,0,0,0,3.11-.73,7.23,7.23,0,0,0,2.19-1.83l1.95,1.85a9.73,9.73,0,0,1-7.57,3.45,9.46,9.46,0,0,1-3.1-.5,7,7,0,0,1-2.49-1.46,6.77,6.77,0,0,1-1.64-2.34,8.09,8.09,0,0,1-.58-3.16,10.63,10.63,0,0,1,.75-4,10.28,10.28,0,0,1,2.05-3.29,9.74,9.74,0,0,1,3.13-2.22,9.48,9.48,0,0,1,3.91-.82,7.24,7.24,0,0,1,5.12,1.76,6.41,6.41,0,0,1,1.88,4.92q0,.5-.09,1.44a14.79,14.79,0,0,1-.27,1.76Zm10.41-2.42c0-.16,0-.34.05-.53s0-.37,0-.53a3.72,3.72,0,0,0-1.07-2.72A4.15,4.15,0,0,0,360,135a5.6,5.6,0,0,0-2.2.42,6.71,6.71,0,0,0-1.76,1.1,6.08,6.08,0,0,0-1.28,1.57,7,7,0,0,0-.73,1.77Z" transform="translate(-11.29 -8.4)"/><path class="cls-2" d="M374.15,146.82l-.5,2.84h-3.16l4.72-26.85h3.31l-2.31,12.71h.07a7.35,7.35,0,0,1,2.54-2.25,7.1,7.1,0,0,1,3.57-.91,8.08,8.08,0,0,1,3,.54,6.62,6.62,0,0,1,2.31,1.49,6.77,6.77,0,0,1,1.49,2.29,8.05,8.05,0,0,1,.53,3,11.33,11.33,0,0,1-.71,4.06,10.32,10.32,0,0,1-2,3.33,9.25,9.25,0,0,1-3,2.23,8.85,8.85,0,0,1-3.82.82,7.7,7.7,0,0,1-3.49-.83,5.41,5.41,0,0,1-2.47-2.44ZM386.4,140a5.11,5.11,0,0,0-1.21-3.47,4.34,4.34,0,0,0-3.48-1.4,6,6,0,0,0-2.63.58,7,7,0,0,0-2.11,1.6,7.63,7.63,0,0,0-1.42,2.37,8,8,0,0,0-.52,2.84,5.7,5.7,0,0,0,.34,2,4.23,4.23,0,0,0,1,1.54,4.66,4.66,0,0,0,1.53,1,5,5,0,0,0,2,.37,5.94,5.94,0,0,0,2.69-.59,6.21,6.21,0,0,0,2.07-1.58,7.21,7.21,0,0,0,1.31-2.34A8.88,8.88,0,0,0,386.4,140Z" transform="translate(-11.29 -8.4)"/><path class="cls-2" d="M395.52,134.74c.1-.71.18-1.35.23-1.91h3.12c0,.16,0,.37-.07.62s-.05.51-.09.78-.07.53-.1.78-.07.47-.09.66h.07a7.33,7.33,0,0,1,2.22-2.4,5.24,5.24,0,0,1,3-.91,5.36,5.36,0,0,1,1.31.14l-.57,3.1a5.88,5.88,0,0,0-1.45-.18,5,5,0,0,0-2.14.44,5.35,5.35,0,0,0-1.59,1.19,5.91,5.91,0,0,0-1.09,1.73,8.84,8.84,0,0,0-.58,2l-1.57,8.84H392.9l2.31-13.18C395.31,136,395.41,135.45,395.52,134.74Z" transform="translate(-11.29 -8.4)"/><path class="cls-2" d="M416.85,139.15c0-.33.08-.59.11-.78a5.17,5.17,0,0,0,0-.54,2.48,2.48,0,0,0-.92-2.15,4.56,4.56,0,0,0-2.63-.65,7.41,7.41,0,0,0-2.7.53,9.62,9.62,0,0,0-2.35,1.31l-1.35-2.2a10.77,10.77,0,0,1,3.17-1.69,11.34,11.34,0,0,1,3.69-.62,10,10,0,0,1,2.33.27,6.14,6.14,0,0,1,2,.85,4.36,4.36,0,0,1,1.4,1.55,4.64,4.64,0,0,1,.53,2.31c0,.21,0,.49,0,.83a7.28,7.28,0,0,1-.11.87l-1.24,6.82c-.12.67-.22,1.35-.29,2s-.1,1.28-.1,1.75h-3c0-.35,0-.73.05-1.13s.09-.81.16-1.21h-.07a7.58,7.58,0,0,1-2.63,2.06,8.51,8.51,0,0,1-5.12.43,5.26,5.26,0,0,1-1.68-.73,4.16,4.16,0,0,1-1.26-1.37,4.1,4.1,0,0,1-.5-2.13,4.81,4.81,0,0,1,1.13-3.32,7.53,7.53,0,0,1,2.94-2,15.48,15.48,0,0,1,4-.92A44.32,44.32,0,0,1,416.85,139.15Zm-.89,2.41c-.92,0-1.88.05-2.88.13a12.68,12.68,0,0,0-2.71.5,5.09,5.09,0,0,0-2,1.08,2.38,2.38,0,0,0-.78,1.85,2.18,2.18,0,0,0,.26,1.15,2.25,2.25,0,0,0,.71.73,2.82,2.82,0,0,0,1,.39,6,6,0,0,0,1.12.11,5.63,5.63,0,0,0,2.06-.38,5.22,5.22,0,0,0,1.67-1,5.79,5.79,0,0,0,1.19-1.49,5.88,5.88,0,0,0,.66-1.81l.24-1.25Z" transform="translate(-11.29 -8.4)"/><path class="cls-2" d="M433.62,135.52h-4.16l-1.6,8.85a6.26,6.26,0,0,0-.1,1.07,1.62,1.62,0,0,0,.55,1.44,2.62,2.62,0,0,0,1.47.37,4.94,4.94,0,0,0,1-.11,2.83,2.83,0,0,0,.81-.28l-.25,2.63a5.47,5.47,0,0,1-1.22.33,8,8,0,0,1-1.44.13,5.06,5.06,0,0,1-3.11-.87,3.22,3.22,0,0,1-1.15-2.75c0-.27,0-.54,0-.82a8.43,8.43,0,0,1,.11-.86l1.63-9.13H423l.49-2.69h3.16l.82-4.84h3.27l-.85,4.84h4.22Z" transform="translate(-11.29 -8.4)"/><path class="cls-2" d="M438.24,149.66H435l2.95-16.83h3.3Zm4.36-23a2.16,2.16,0,0,1-.59,1.53,2,2,0,0,1-1.48.63,2.16,2.16,0,0,1-1.47-.53,1.85,1.85,0,0,1-.61-1.49,2.1,2.1,0,0,1,.65-1.58,2.13,2.13,0,0,1,1.5-.62,1.94,1.94,0,0,1,1.42.57A2,2,0,0,1,442.6,126.68Z" transform="translate(-11.29 -8.4)"/><path class="cls-2" d="M450.1,132.83c-.05.33-.1.77-.16,1.33s-.12,1-.19,1.4h.07a7.1,7.1,0,0,1,2.36-2.33,6.15,6.15,0,0,1,3.25-.87,5.59,5.59,0,0,1,4.21,1.48,5.09,5.09,0,0,1,1.44,3.71,10.35,10.35,0,0,1-.14,1.7l-1.85,10.41h-3.3l1.63-9.3a8.83,8.83,0,0,0,.21-1.89,3.76,3.76,0,0,0-.71-2.38,3.06,3.06,0,0,0-2.56-.92,4.61,4.61,0,0,0-3.44,1.51,7.66,7.66,0,0,0-1.92,4l-1.56,8.95h-3.31l2.31-13.18q.15-.67.3-1.74c.11-.71.19-1.35.23-1.91Z" transform="translate(-11.29 -8.4)"/><path class="cls-2" d="M465.59,152.61a6.5,6.5,0,0,0,2.47,2,7.77,7.77,0,0,0,3.32.72,7.5,7.5,0,0,0,2.84-.48,5.62,5.62,0,0,0,2-1.31,6.13,6.13,0,0,0,1.27-2,15.94,15.94,0,0,0,.74-2.45l.43-2.24h-.07A7.34,7.34,0,0,1,476,149a7.43,7.43,0,0,1-3.48.8,7.89,7.89,0,0,1-3-.55,7,7,0,0,1-2.31-1.51,6.44,6.44,0,0,1-1.47-2.31,8.27,8.27,0,0,1-.52-2.95,11,11,0,0,1,.71-3.94,10.13,10.13,0,0,1,2-3.23,9.52,9.52,0,0,1,3-2.19,9.13,9.13,0,0,1,3.84-.8,7.25,7.25,0,0,1,3.59.86,5,5,0,0,1,2.2,2.34h.11l.46-2.73h3.2l-2.81,16a20.51,20.51,0,0,1-.94,3.5,9.16,9.16,0,0,1-1.78,3,8.23,8.23,0,0,1-2.95,2.08,11.16,11.16,0,0,1-4.45.78,12.5,12.5,0,0,1-4.46-.83,8.49,8.49,0,0,1-3.5-2.37Zm2.91-10.34a5.59,5.59,0,0,0,.32,1.91,4.74,4.74,0,0,0,.93,1.54,4.11,4.11,0,0,0,1.49,1.05,5.16,5.16,0,0,0,2,.37,5.93,5.93,0,0,0,2.63-.58A7,7,0,0,0,478,145a7,7,0,0,0,1.38-2.29,7.6,7.6,0,0,0,.5-2.77,4.86,4.86,0,0,0-1.3-3.48,4.57,4.57,0,0,0-3.53-1.39,6.42,6.42,0,0,0-2.66.55,6.15,6.15,0,0,0-2.07,1.51A7.13,7.13,0,0,0,469,139.4,8.27,8.27,0,0,0,468.5,142.27Z" transform="translate(-11.29 -8.4)"/></svg>